<svg xmlns="http://www.w3.org/2000/svg" viewBox="0 0 128 128" role="img" aria-label="Holive mark mono">
  <title>Holive mark mono</title>
  <!-- Single-color crayon mark; set color via CSS `color` / currentColor -->
  <defs>
    <filter id="crayon" x="-12%" y="-12%" width="124%" height="124%">
      <feTurbulence type="fractalNoise" baseFrequency="0.85" numOctaves="2" result="noise"/>
      <feDisplacementMap in="SourceGraphic" in2="noise" scale="1.15" xChannelSelector="R" yChannelSelector="G"/>
    </filter>
  </defs>
  <g filter="url(#crayon)" fill="currentColor" stroke="currentColor">
    <path
      d="M34 48c8-26 52-28 60 2"
      fill="none"
      stroke-width="4.5"
      stroke-linecap="round"
      stroke-linejoin="round"
    />
    <path
      fill-rule="evenodd"
      stroke-width="0"
      d="M64 28
         c26-2 44 16 46 44
         c2 26-10 48-32 56
         c-10 4-22 5-34 1
         c-26-8-40-32-38-56
         c2-26 22-43 58-45z
         M66 50
         c-10 0-18 9-18 20s8 20 18 20 18-9 18-20-8-20-18-20z
         M68 62
         c4.5 0 8 4 8 10s-3.5 10-8 10-8-4-8-10 3.5-10 8-10z"
    />
  </g>
</svg>
